<?xml version="1.0" standalone="no"?>
<!DOCTYPE svg PUBLIC "-//W3C//DTD SVG 20010904//EN"
 "http://www.w3.org/TR/2001/REC-SVG-20010904/DTD/svg10.dtd">
<svg version="1.0" xmlns="http://www.w3.org/2000/svg"
 width="791.000000pt" height="374.000000pt" viewBox="0 0 791.000000 374.000000"
 preserveAspectRatio="xMidYMid meet">
<metadata>
Created by potrace 1.16, written by Peter Selinger 2001-2019
</metadata>
<g transform="translate(0.000000,374.000000) scale(0.100000,-0.100000)"
fill="#000000" stroke="none">
<path d="M4631 3693 c-11 -39 -13 -148 -3 -138 3 2 4 26 4 52 -1 27 2 63 8 82
5 19 8 37 5 39 -2 2 -8 -14 -14 -35z"/>
<path d="M4481 3593 c-1 -12 4 -25 9 -28 6 -3 10 -17 10 -31 0 -21 -5 -24 -35
-24 -19 0 -35 3 -35 8 0 11 -62 84 -67 79 -2 -3 10 -20 26 -38 40 -43 39 -59
-4 -87 l-35 -22 0 39 c0 22 -4 42 -9 45 -5 4 -7 -11 -4 -34 5 -35 3 -39 -11
-34 -9 3 -16 16 -16 28 0 12 -7 31 -15 42 -14 18 -14 17 -5 -9 13 -36 13 -37
-3 -37 -8 0 -19 10 -25 23 -10 20 -11 18 -7 -13 7 -44 -2 -56 -42 -62 -30 -4
-33 -2 -34 21 l-1 26 -10 -25 c-5 -14 -25 -38 -44 -53 l-34 -29 0 30 c0 17 -5
34 -10 37 -7 4 -9 -2 -4 -19 9 -38 0 -44 -52 -35 -34 6 -51 5 -62 -3 -12 -11
-14 -7 -10 27 3 22 8 49 12 60 5 13 2 11 -8 -5 -8 -14 -16 -41 -16 -60 0 -19
-6 -46 -13 -60 -12 -24 -17 -25 -82 -22 -58 3 -80 9 -129 38 -32 19 -63 33
-69 31 -5 -1 3 -10 19 -18 84 -41 114 -64 114 -83 0 -39 -15 -49 -73 -48 -37
0 -60 -5 -68 -14 -7 -9 -20 -12 -32 -8 -12 4 -17 2 -13 -4 9 -16 -34 -42 -69
-42 -17 0 -36 -5 -41 -10 -8 -8 -26 -3 -60 14 -27 13 -67 27 -89 30 l-40 5 35
-10 c19 -6 59 -22 88 -36 47 -23 52 -29 52 -58 0 -36 -21 -59 -62 -69 -16 -3
-28 -11 -28 -17 0 -6 -8 -6 -22 1 l-23 11 23 -17 c27 -20 28 -41 2 -49 -11 -3
-20 -11 -20 -16 0 -5 -17 -9 -37 -7 -35 3 -38 1 -41 -24 -2 -16 -8 -28 -14
-28 -6 0 -41 31 -79 69 -38 38 -64 61 -60 52 5 -9 36 -42 69 -73 58 -55 59
-58 41 -74 -11 -9 -19 -23 -19 -31 0 -15 -26 -18 -34 -4 -7 11 -145 36 -153
28 -2 -3 17 -8 44 -12 95 -13 145 -39 91 -47 -15 -2 -24 -11 -26 -24 -4 -30
-30 -34 -99 -18 -64 15 -100 18 -68 5 11 -5 41 -11 66 -15 37 -5 48 -12 53
-29 9 -34 8 -37 -14 -37 -15 0 -22 -9 -26 -30 -7 -35 -10 -35 -53 -14 -17 8
-36 14 -43 12 -6 -2 10 -12 35 -22 26 -10 47 -21 47 -25 0 -18 -40 -43 -57
-36 -31 12 -67 14 -103 5 -33 -8 -32 -8 15 -7 61 1 117 -11 109 -24 -3 -5 -17
-10 -32 -10 -17 -1 -21 -3 -9 -6 28 -7 20 -34 -25 -76 -42 -39 -44 -39 -118
-39 l-75 0 75 -7 c45 -4 85 -14 99 -23 l24 -17 -27 -11 c-15 -5 -33 -10 -39
-10 -7 0 -19 -5 -27 -10 -11 -8 -8 -9 13 -4 23 5 26 4 21 -11 -6 -15 -20 -16
-100 -13 -51 1 -90 0 -86 -4 4 -4 45 -8 92 -10 67 -2 85 -6 88 -18 1 -10 -9
-20 -25 -27 l-28 -11 33 5 c37 6 42 -7 13 -36 -20 -20 -52 -19 -78 2 -9 6 -13
6 -13 -2 0 -6 13 -14 29 -17 18 -4 39 -20 55 -43 l26 -36 -32 -6 -33 -6 33 -2
c22 -1 32 -6 32 -17 0 -13 -8 -15 -42 -9 -24 3 -52 9 -63 11 -16 4 -17 3 -5
-4 8 -5 36 -13 63 -16 37 -6 47 -11 47 -26 0 -14 -11 -22 -41 -30 -22 -6 -55
-20 -72 -31 -41 -24 -29 -25 20 0 74 37 85 35 110 -17 24 -52 21 -66 -11 -58
-12 3 -35 1 -51 -4 l-30 -10 32 5 c44 6 62 -2 56 -25 -3 -11 4 -31 14 -46 16
-22 18 -32 9 -60 -6 -18 -20 -37 -33 -43 -12 -5 -27 -20 -34 -33 -11 -21 -9
-21 18 5 16 15 38 27 49 27 15 0 13 -4 -11 -20 -16 -11 -26 -20 -22 -20 4 0
18 7 31 15 37 24 56 10 56 -41 0 -24 -3 -44 -7 -44 -5 0 -19 -10 -33 -21 l-25
-21 28 16 c15 9 32 14 37 11 14 -9 12 -37 -5 -59 -8 -11 -15 -25 -15 -30 0 -6
10 4 21 22 25 39 37 35 19 -7 -14 -34 -7 -51 21 -51 29 0 23 -16 -16 -40 -19
-12 -35 -24 -35 -26 0 -6 14 2 52 28 14 10 29 18 32 18 11 0 -26 -54 -57 -82
-16 -16 -25 -28 -20 -28 5 0 18 9 28 20 24 26 39 25 54 -4 15 -27 7 -77 -16
-113 -20 -30 -147 -98 -263 -139 -87 -31 -148 -44 -420 -89 -52 -9 -122 -20
-155 -26 -57 -9 -386 -31 -685 -44 -345 -15 -456 -30 -595 -79 -120 -42 -335
-141 -335 -155 0 -4 -16 -15 -35 -24 -19 -9 -42 -24 -52 -33 -57 -51 -99 -84
-109 -84 -7 0 -24 -17 -40 -38 -39 -51 -56 -68 -77 -75 -9 -4 -21 -17 -26 -30
-5 -14 -21 -33 -35 -45 -14 -11 -26 -25 -26 -31 0 -7 -7 -14 -15 -17 -8 -4
-15 -12 -15 -20 0 -7 -13 -20 -30 -29 -16 -9 -30 -19 -30 -23 0 -4 -15 -23
-33 -42 -32 -34 -44 -75 -28 -95 5 -5 11 -21 13 -35 2 -20 9 -26 36 -28 29 -3
32 -6 27 -25 -7 -22 -7 -22 10 1 16 22 18 22 30 5 7 -9 11 -23 8 -30 -8 -20 3
-15 39 17 18 17 43 33 55 36 13 4 23 12 23 19 0 8 12 27 26 45 19 21 32 29 45
25 13 -4 19 -2 19 8 0 8 11 25 24 38 13 13 26 34 30 47 4 12 13 22 20 22 7 0
23 13 36 30 12 16 27 27 32 24 10 -6 44 30 57 61 5 11 31 31 57 44 27 13 58
32 69 41 11 10 32 24 46 31 15 8 48 27 74 43 65 40 250 92 370 104 55 5 251
10 435 11 218 2 370 7 435 16 55 7 195 27 310 44 116 16 271 37 345 46 147 18
316 55 387 86 54 23 63 24 63 4 0 -17 27 -19 66 -5 21 8 31 7 44 -5 21 -19 46
-19 54 0 11 30 25 14 19 -23 -8 -51 -19 -62 -62 -62 -40 0 -61 -14 -61 -41 0
-13 -13 -18 -56 -24 -101 -12 -144 -40 -162 -105 -5 -19 -21 -52 -35 -73 -14
-21 -28 -51 -32 -66 -7 -34 11 -111 26 -111 6 0 7 -5 4 -10 -3 -6 -1 -10 4
-10 6 0 11 15 11 33 0 24 6 35 25 43 19 9 27 9 36 -2 6 -8 19 -14 29 -14 10 0
23 -7 30 -15 16 -19 30 -4 30 33 0 21 4 23 35 21 28 -3 41 3 68 29 18 17 43
32 55 32 33 0 102 49 102 72 0 11 13 33 29 49 22 22 39 29 68 29 42 0 74 18
111 62 19 23 32 28 66 28 77 0 97 50 46 115 -16 21 -30 46 -30 56 0 21 25 26
36 8 4 -6 19 -9 36 -5 24 5 29 2 27 -12 -4 -45 5 -61 10 -17 5 40 11 52 31 62
24 12 25 11 31 -30 l6 -42 1 37 c2 45 15 55 40 30 11 -11 36 -22 56 -26 20 -4
40 -14 43 -22 5 -13 7 -12 17 1 8 12 39 19 106 25 93 8 167 23 202 41 10 5 28
9 41 9 28 0 47 17 47 43 0 36 20 5 42 -66 19 -61 22 -93 21 -209 -1 -76 3
-140 8 -143 5 -4 9 -21 9 -38 0 -42 10 -77 21 -77 5 0 9 13 9 28 0 16 9 38 20
50 11 12 20 32 20 46 0 14 5 28 10 31 6 4 10 -21 10 -68 0 -41 5 -99 10 -128
6 -30 13 -67 16 -84 6 -37 14 -46 14 -16 0 38 31 161 41 161 5 0 12 -18 15
-40 4 -22 11 -43 15 -46 5 -3 9 -30 9 -60 0 -66 15 -64 24 3 10 65 26 126 33
120 12 -13 20 -81 12 -110 -12 -43 -5 -44 20 -3 12 20 28 68 34 108 9 52 17
73 27 73 11 0 14 -10 13 -35 l-3 -35 21 25 c18 21 20 32 14 95 -3 38 -11 97
-16 130 -8 42 -8 60 0 63 17 6 13 25 -24 118 -19 47 -35 95 -35 105 0 24 30
25 31 2 1 -12 4 -9 8 7 9 33 53 55 81 40 11 -6 32 -8 47 -4 22 4 25 3 13 -5
-8 -6 -11 -11 -5 -11 5 0 4 -5 -3 -12 -7 -7 -12 -17 -12 -22 0 -6 9 0 19 13
15 20 21 22 40 12 12 -7 32 -12 44 -11 36 3 38 1 27 -22 -11 -22 -10 -22 4 -4
9 11 17 18 18 15 2 -2 8 -13 14 -24 9 -16 22 -20 64 -20 46 0 53 -3 66 -28 8
-15 17 -27 20 -27 2 0 0 9 -6 19 -14 27 -13 30 10 24 14 -4 30 3 46 18 l24 23
-6 -85 c-8 -100 -8 -103 -6 -197 2 -65 4 -75 22 -79 12 -3 30 -24 42 -47 11
-22 31 -53 44 -69 13 -15 21 -34 18 -42 -4 -8 -3 -23 1 -32 14 -35 27 29 20
100 -5 51 -3 82 11 127 10 33 20 60 23 60 21 -1 32 -25 41 -90 7 -48 18 -86
32 -105 15 -19 22 -43 21 -67 -1 -21 2 -38 8 -38 5 0 9 3 9 8 0 4 5 39 10 77
5 39 5 96 1 128 -4 31 -4 57 -1 57 4 0 17 -22 29 -49 11 -27 26 -51 32 -53 7
-2 12 -25 13 -51 1 -26 4 -47 8 -47 14 0 20 49 21 172 0 70 4 128 7 128 11 0
40 -35 40 -48 0 -7 5 -12 11 -12 17 0 1 137 -23 191 -19 45 -34 57 -92 75 -46
14 -46 36 1 28 21 -3 51 -1 67 5 23 10 27 9 23 -3 -3 -8 1 -20 10 -28 14 -11
16 -10 10 14 -4 14 -10 33 -13 42 -3 9 -1 16 5 16 7 0 14 -7 17 -15 4 -8 10
-15 15 -15 6 0 5 9 -1 21 -7 11 -9 23 -7 26 12 12 46 -10 60 -38 8 -17 17 -26
21 -21 3 6 -5 24 -19 40 -14 16 -25 35 -25 40 0 24 24 22 51 -4 16 -15 29 -23
29 -16 0 6 -14 22 -30 34 -30 22 -30 22 -9 30 15 6 28 3 43 -9 20 -17 20 -17
7 0 -10 12 -11 21 -4 28 7 7 15 5 24 -8 8 -11 21 -23 29 -28 8 -4 3 5 -12 22
-16 16 -28 40 -28 52 0 21 3 23 32 17 17 -3 29 -4 26 0 -4 3 1 14 10 23 9 10
22 26 28 37 11 18 13 18 38 -5 14 -14 26 -19 26 -13 0 7 -4 12 -10 12 -15 0
-12 27 3 33 16 6 25 1 50 -29 17 -20 16 -22 -25 -68 -24 -25 -59 -71 -78 -101
-28 -44 -37 -52 -49 -42 -12 10 -12 9 -1 -9 11 -18 10 -25 -9 -52 -64 -95 -65
-97 -47 -83 16 13 29 34 75 120 39 72 141 201 158 201 5 0 18 -8 31 -18 l23
-18 -20 -48 c-12 -26 -20 -62 -20 -79 2 -27 2 -28 6 -7 9 57 37 120 51 115 9
-3 12 1 8 13 -7 22 80 135 108 140 16 3 17 -2 11 -52 -4 -31 -5 -56 -2 -56 3
0 19 25 36 55 31 55 48 71 36 36 -3 -11 -8 -29 -10 -41 -5 -27 -44 -90 -55
-90 -5 0 -11 8 -13 18 -3 9 -5 3 -6 -15 -1 -18 -23 -69 -52 -119 -28 -49 -57
-104 -66 -124 -20 -47 -64 -202 -58 -208 6 -6 10 7 31 92 19 82 39 127 97 230
42 72 45 75 50 49 3 -15 13 -37 21 -48 14 -18 15 -17 1 17 -8 21 -15 44 -15
53 0 16 41 85 51 85 3 0 5 -36 4 -80 -1 -44 1 -80 5 -80 4 0 7 30 7 67 1 128
-1 122 61 185 55 54 62 58 106 58 46 0 46 0 40 -27 -4 -16 -9 -32 -12 -38 -9
-15 -10 -45 -2 -45 4 0 10 17 13 38 9 51 30 80 49 65 8 -7 24 -10 36 -6 22 5
22 4 10 -23 -17 -42 -26 -49 -20 -17 2 15 2 25 -2 22 -4 -4 -9 -35 -12 -70 -3
-34 -10 -73 -15 -86 -5 -14 -9 -39 -8 -56 1 -28 2 -27 10 12 9 48 19 65 20 35
1 -24 6 -55 11 -59 2 -2 3 36 3 83 0 113 23 165 74 170 29 3 33 1 26 -15 -11
-29 -18 -140 -9 -146 5 -3 9 20 9 51 0 84 10 112 40 112 29 0 30 -4 10 -60 -8
-23 -15 -70 -15 -104 -1 -58 -1 -60 -15 -36 -8 14 -14 20 -15 14 0 -7 9 -22
20 -35 l19 -24 1 69 c0 68 27 176 44 176 4 0 5 -10 2 -22 -9 -32 -19 -244 -11
-237 3 4 8 40 11 80 8 138 17 174 40 175 12 1 27 5 34 9 10 6 12 -5 8 -48 -2
-31 -1 -54 4 -51 4 3 8 20 8 39 0 62 25 91 33 38 l4 -28 2 26 c1 23 6 27 47
33 40 5 48 3 65 -17 20 -24 25 -17 9 13 -8 16 -4 19 48 25 31 4 92 8 135 9
l78 1 50 52 c61 64 62 86 8 149 -22 26 -52 64 -65 83 -50 75 -58 87 -82 112
l-24 27 34 25 c18 14 66 33 106 42 40 10 71 20 68 22 -2 3 -33 -3 -68 -12 -43
-11 -64 -12 -66 -5 -2 6 -22 -8 -43 -31 -28 -30 -42 -40 -50 -32 -22 22 40
109 111 156 13 10 21 17 16 17 -23 0 -97 -68 -121 -111 -14 -27 -31 -49 -36
-49 -11 0 -59 49 -59 60 0 4 -22 31 -50 61 -27 30 -50 59 -50 64 0 6 9 28 21
49 27 52 19 56 -10 5 l-23 -41 -19 31 c-10 16 -35 61 -55 98 -20 37 -57 99
-81 136 -47 73 -48 89 -12 136 11 13 19 28 19 34 0 5 -11 -7 -25 -27 -14 -20
-25 -41 -25 -46 0 -16 -15 -12 -33 8 -11 11 -18 38 -18 68 -2 48 -2 48 -8 11
l-6 -38 -31 33 c-16 18 -57 67 -89 108 -33 41 -76 94 -97 117 -42 47 -45 60
-23 102 14 29 31 105 41 191 12 96 -31 242 -89 308 -28 30 -90 47 -118 31 -61
-32 -78 -75 -100 -256 -7 -57 -16 -103 -20 -103 -3 0 -11 15 -17 33 -11 32
-12 32 -6 2 l5 -30 -26 26 c-21 21 -25 30 -17 45 5 11 6 28 1 39 -6 17 -8 15
-8 -11 -1 -16 -7 -39 -15 -50 -15 -19 -15 -19 -37 3 -22 22 -27 58 -14 106 5
17 4 19 -4 6 -6 -8 -12 -31 -14 -50 -6 -63 -35 -80 -53 -31 -10 26 -11 25 -10
-13 1 -60 -22 -51 -60 23 -17 35 -40 71 -51 80 -47 43 -95 73 -125 78 -18 3
-43 10 -55 16 -32 16 -132 5 -183 -20 -25 -12 -60 -36 -78 -53 -41 -39 -65
-35 -72 11 -4 20 -9 41 -13 47 -4 6 0 16 8 23 8 7 15 18 15 24 0 6 -5 3 -11
-7 -9 -15 -13 -16 -25 -6 -13 11 -14 9 -9 -13 8 -33 -10 -45 -34 -24 -14 13
-24 14 -44 7 -23 -9 -28 -7 -38 11 -6 11 -11 37 -12 57 0 20 -2 28 -4 19 -3
-11 -14 -18 -29 -18 -20 0 -24 5 -24 29 0 17 5 33 10 36 7 4 6 13 -1 26 -6 11
-8 27 -5 35 3 8 1 14 -4 14 -10 0 -14 -53 -10 -112 2 -38 -17 -35 -41 7 -12
19 -27 35 -35 35 -17 0 -17 5 -2 33 16 30 28 88 17 81 -5 -3 -9 -12 -9 -20 0
-13 -25 -71 -36 -83 -2 -2 -18 6 -37 18 -19 11 -37 18 -40 14 -12 -11 -37 19
-33 41 2 11 1 15 -1 9 -12 -34 -41 9 -50 72 -3 25 -9 45 -13 45 -4 0 -4 -19 1
-42 12 -65 12 -68 -21 -68 -24 0 -30 4 -30 23 -1 12 -8 33 -16 47 l-15 25 6
-25 c19 -74 19 -73 -4 -61 -15 8 -27 9 -40 1 -28 -14 -61 -12 -61 4 0 8 -8 24
-18 36 l-18 22 -34 -28 -33 -29 6 40 c4 27 3 35 -3 25 -5 -8 -10 -22 -10 -30
0 -12 -12 -15 -53 -14 -108 3 -104 1 -120 42 -12 28 -16 31 -16 15z m979 -386
l-1 -32 -19 24 c-16 18 -18 27 -9 37 17 20 29 7 29 -29z m1070 -1845 c0 -4
-18 -26 -40 -47 l-41 -40 3 35 c2 22 10 39 23 47 23 14 55 17 55 5z m-90 -9
c0 -3 -6 -14 -14 -22 -8 -9 -22 -30 -31 -46 l-16 -30 7 40 c3 22 13 46 22 53
17 13 32 16 32 5z m-217 -16 l25 -13 -32 -32 c-18 -18 -36 -32 -39 -32 -10 0
-49 61 -43 67 3 3 13 0 23 -8 15 -12 16 -12 11 3 -12 30 13 37 55 15z m117 7
c0 -3 -21 -31 -47 -62 -26 -32 -50 -60 -53 -64 -3 -4 -16 1 -30 12 l-24 18 19
23 c46 51 135 100 135 73z"/>
<path d="M5040 3555 c-7 -14 -10 -28 -7 -32 4 -3 7 0 7 7 0 7 7 22 17 32 9 10
12 18 6 18 -5 0 -16 -11 -23 -25z"/>
<path d="M4021 3526 c9 -12 23 -32 32 -46 10 -13 17 -20 17 -14 0 6 -15 26
-32 45 -18 20 -26 26 -17 15z"/>
<path d="M4140 3544 c1 -16 29 -60 29 -44 0 8 -6 24 -14 34 -8 11 -15 16 -15
10z"/>
<path d="M5354 3398 l-19 -23 23 19 c21 18 27 26 19 26 -2 0 -12 -10 -23 -22z"/>
<path d="M5343 3317 l-23 -42 25 28 c14 15 25 35 25 43 0 21 -3 18 -27 -29z"/>
<path d="M3550 3284 c0 -6 7 -19 15 -30 8 -10 14 -14 14 -9 0 6 -6 19 -14 29
-8 11 -15 15 -15 10z"/>
<path d="M3526 3205 c10 -8 24 -14 29 -14 6 0 1 6 -9 14 -11 8 -24 15 -30 15
-5 0 -1 -7 10 -15z"/>
<path d="M3229 2991 c13 -12 28 -21 34 -21 12 0 11 0 -28 24 l-30 17 24 -20z"/>
<path d="M7049 2593 c-13 -16 -12 -17 4 -4 16 13 21 21 13 21 -2 0 -10 -8 -17
-17z"/>
<path d="M6990 2545 c-18 -19 -32 -36 -29 -38 2 -2 19 14 38 35 42 48 36 50
-9 3z"/>
<path d="M7443 2352 c-79 -70 -137 -162 -207 -331 -15 -35 -25 -65 -23 -67 2
-2 14 22 27 54 67 164 135 274 213 344 23 20 40 37 37 37 -3 0 -24 -16 -47
-37z"/>
<path d="M7408 2373 c6 -2 18 -2 25 0 6 3 1 5 -13 5 -14 0 -19 -2 -12 -5z"/>
<path d="M7340 2352 c-68 -32 -105 -65 -149 -129 -24 -35 -42 -66 -39 -68 2
-3 21 22 42 55 43 67 88 107 156 138 25 11 41 20 35 20 -5 0 -26 -7 -45 -16z"/>
<path d="M7555 2030 c-4 -7 3 -8 22 -4 38 9 42 14 10 14 -14 0 -29 -5 -32 -10z"/>
<path d="M7490 1996 c-25 -13 -56 -37 -70 -53 l-25 -28 30 26 c17 15 49 36 73
48 23 12 42 24 42 26 0 7 1 7 -50 -19z"/>
<path d="M7615 1945 c19 -7 145 -11 145 -4 0 3 -35 7 -77 7 -43 1 -73 -1 -68
-3z"/>
<path d="M7553 1933 c9 -2 25 -2 35 0 9 3 1 5 -18 5 -19 0 -27 -2 -17 -5z"/>
<path d="M7770 1937 c3 -3 36 -8 74 -11 38 -3 66 -3 63 0 -3 3 -36 8 -74 11
-37 3 -66 3 -63 0z"/>
<path d="M7196 1312 c10 -18 30 -43 43 -55 14 -13 8 -1 -14 28 -47 63 -53 69
-29 27z"/>
<path d="M2990 1265 c-14 -8 -19 -14 -10 -14 8 0 24 6 34 14 25 19 9 19 -24 0z"/>
<path d="M6036 1244 c-4 -10 1 -22 11 -30 29 -21 35 -16 16 14 -9 15 -18 28
-19 30 -1 2 -4 -5 -8 -14z"/>
<path d="M6990 1250 c0 -5 5 -10 10 -10 6 0 10 5 10 10 0 6 -4 10 -10 10 -5 0
-10 -4 -10 -10z"/>
<path d="M6626 1234 c-4 -9 -4 -19 -1 -22 2 -3 7 3 11 12 4 9 4 19 1 22 -2 3
-7 -3 -11 -12z"/>
<path d="M6029 1181 c13 -12 28 -21 34 -21 12 0 11 0 -28 24 l-30 17 24 -20z"/>
<path d="M5956 1095 c4 -8 11 -15 16 -15 6 0 5 6 -2 15 -7 8 -14 15 -16 15 -2
0 -1 -7 2 -15z"/>
<path d="M6912 1080 c0 -14 2 -19 5 -12 2 6 2 18 0 25 -3 6 -5 1 -5 -13z"/>
<path d="M6672 1060 c0 -19 2 -27 5 -17 2 9 2 25 0 35 -3 9 -5 1 -5 -18z"/>
<path d="M6922 1020 c0 -19 2 -27 5 -17 2 9 2 25 0 35 -3 9 -5 1 -5 -18z"/>
<path d="M6176 1009 c-11 -58 -5 -75 9 -24 8 28 14 51 15 53 0 1 -4 2 -9 2 -5
0 -11 -14 -15 -31z"/>
<path d="M4891 1025 c1 -19 18 -51 18 -35 0 8 -4 22 -9 30 -5 8 -9 11 -9 5z"/>
</g>
</svg>
