<svg id="Camada_1" data-name="Camada 1" xmlns="http://www.w3.org/2000/svg" viewBox="0 0 1141.54 2397.78"><path d="M-109.67,1117.29c12.45-40.66,46.78-82.25,97.2-99.36,79.58-27,164.41,12.88,150.6,28.22-13.64,15.14-63.46-43.34-155.77,7.55-41.49,22.87-72.93,86.27-66.45,147.83,7.2,68.4,44.75,126.22,133.1,176,103.41,58.32,291.57,39.84,428-38.87l.05,0c122-80.32,242.88-195.37,311-331.15l0-.06C854.8,902,923.59,356.07,823.7,288.07a.7.7,0,0,0-.28-.12q-18.81-4.12-37.78-7.42c-44.73-8-79.88-39.29-122-54.33a.78.78,0,0,0-.21,0,97.49,97.49,0,0,0-9.85-.1.79.79,0,0,0-.76.65C641.29,290.94,704.93,292.07,624,349.1a.27.27,0,0,1-.1.06c-33.21,16.39-53,52-79.26,76.23-6.14,5.92-10.42,12.65-11.13,21.41-.32,3.91-3.12,7.83-2.86,11.65.53,7.85,2.43,13.39,3.24,21.24.73,7.05-2.1,14.46-6.53,19.71-4.63,5.49-5.7-1.73-7.87,1.53-7.2,10.8-7-4.18-7-6.94q.54-20.21,1-40.4c.07-3.21,0-6.43,0-9.65l-2.93-.86-4.1,6.28c-5.23,8-6.37,17.08-6.87,26.24-.38,7-.06,14-.08,21a12.1,12.1,0,0,1-8.47,10.86c-4.42,1.16-10.87-.88-12.21-5.14a23.37,23.37,0,0,1-.39-12.6c4-14.52,4.5-29.25,4-44.11a4.38,4.38,0,0,0-.7-1.75.78.78,0,0,0-1.26-.17c-4.76,5.08-7.58,12.51-9.52,18.85-8,26.25-18.21,27.13-18.2,27.53.47,14.92-4.72-1.47-6.75-11.91-.73-3.78,1.64-8.46,3.41-12.36a111.88,111.88,0,0,1,7.31-12.56c20.75-33.15-.21-6-4.45-5.07-2.69.61-5.34,1.44-8.05,1.83-.76.11-2.29-1.72-2.43-1.5-8.69,12.7-4.31-8.43.36-15.48,5.3-8,10.8-18.36,20.16-26.28,19.1-16.17,48.57-10.95,52.68-40,.81-3.25,1.6-7.17-1.14-10.5-1.35-1.63-5.42-4.1-6.12-4.53-8.28-5-16.23,6.8-24.33,8a22.78,22.78,0,0,1-13.21-2.44c-3.55-1.87-1.78-6.14.38-8.68C480,337.7,491.19,331,506.32,330.8c8-.09,15.1,2.82,22.73,3.5,11.79,1.06,23.16-.38,33.28-6.83l.11-.09c55.16-49,29.61-62.78,24.26-126.78-.38-4.9-2.31-7.79-6.32-10.25-6.24-3.82-12.14-8.21-18.32-12.15a19.75,19.75,0,0,0-5.12-1.78.77.77,0,0,0-.93.47c-.6,1.6-1.45,3.21-1.37,4.77.45,8.71.93,17.44,2,26.1,1.09,9.14-4.62,13.65-10.89,18.33-11.27,8.41-22.94,16.45-33.22,26a37.22,37.22,0,0,0-12.15,25.41c-.18,3.14-3.23,18.7-12.53,26.53-4.72,4-16.2,18.43-23,18.72-1.38,0-16.89,1.92-16.07-9.12.66-9,18.47-9.12,23.7-31.8.44-1.93.53-4.79-.45-6.59-1.52-2.82-4.52-3.75-7.56-2-4.55,2.55-45.22,4.44-50.6,36.14-.16,1-1.51,2.49-1.27,2.59s-12.46,6.74-9.19,18c1.42,4.88,10.22,15.6,12.23,20.29s-.49,8.11-3.59,10.91,7.43,15.07-11.28,3.1c-1.78-1.13-2.68-4.09-3.81-6.32-5-9.87-8.27-9.09-14-20.49-1.85-3.66,1.36-19.2,1.54-23.3a3.25,3.25,0,0,0-1.07-2.49,2.63,2.63,0,0,0-2.51.46c-2.4,2.6-5.35,5.05-6.74,8.16-4.44,9.93-16.61,18.11-10.27,27.29,3.09,4.47,5.92,9.11,8.93,13.64s-7.26,6.61-4.45,11.28c9.21,15.28-9.59.63-14.9-7.09-5.88-8.56-11.52-15.46-11.52-25.84,0-9.6,9.76-23,15.2-28.48,4.11-4.14,8.46-8.16,7.33-15a.82.82,0,0,0-.59-.64c-3.82-1-7,0-10.14,2.89-4.72,4.29-10.1,7.85-14.86,12.1-7.51,6.71-9.95,16.22-13.3,25.23-2.43,6.5-4.71,13.17-8.11,19.17s-11.11,4.77-13.95-1.42c-.47-1-1.67-3.53-2-2.7-7.95,20.54-4.46-5.65-3.75-8.91,1.31-5.92,3.56-11.42,9.51-14.82,2.6-1.49,4.63-4.54,6.13-7.31,5-9.19,9.58-18.55,14.22-27.9a13.9,13.9,0,0,0,.9-3.75.79.79,0,0,0-.4-.82l-.61-.32a.78.78,0,0,0-1,.22c-5,6.78-9.8,13.7-15.1,20.22-2.38,2.93-5.61,6.7-8.82,7.09a9.53,9.53,0,0,1-10.33-8.27c-.54-4.09.74-9,2.65-12.75,6.76-13.38,16.8-24.21,28.74-33.12,19.57-13.31,16.46,9.7,91.08-37.77,25.15-16,67.75-14.13,78.4-45.42,2.65-13.82,5.41-27.73,4.74-42.14l0-.18c-9.17-33.74-32.57-70.21-49.88-101l0-.06C427.06,3.32,417.42-32.2,435-71.12c3.44-7.64,18.06-25.87,7.43-23.6-3.83.82-6.66.94-8.62,4.09-6.13,9.9-14.47,17.81-23.25,25.24-25.83,11.83-53.66,13.6-81.89,7.41-10.65-1.75-21.49,1-29,8.84C291-40,283.8-29.43,276.26-19.26,269.4-10,262.83-.71,252.7,5.61c-9.27,5.78-18.28,12.16-24.65,21.41a8.14,8.14,0,0,0-1.58,3.47c-1.14,11.15-21,18.22-29.56,13.31-3.13-1.77-5-3.6-3-7.78,5.13-10.82,11.83-20.31,21.08-28,1-.84,2.42-1.75,2.68-2.86A8.61,8.61,0,0,0,217.14.4c-.13-.35-2.61-.35-3.56.23A110.8,110.8,0,0,0,185.2,25.82a17.55,17.55,0,0,0-2.67,4.38,11.7,11.7,0,0,1-16.4,6c-4.28-2.22-5.82-6-4.43-10,3.5-10,7-20.07,12-29.32,2.41-4.48,7.94-7.44,12.4-10.61,2.76-2,5.92-3.37,8.86-5.25a.79.79,0,0,0-.28-1.44c-7.14-1.24-13.53,1.35-19.09,5.23-4.89,3.41-8.5,8.6-12.93,12.74-5.65,5.28-11,11.27-17.51,15.15-6.28,3.73-10,.93-11.56-6.32-.27-1.28-.55-2.56-.78-3.57a.77.77,0,0,1,.18-.67c8.68-9.75,16.37-20.34,26.06-28.57,8.82-7.5,19.47-12.85,29.88-19.17A.78.78,0,0,0,188.5-47c-6.88-.28-13.49-1.44-19,.55-6.13,2.22-11,8.23-16,13-2.71,2.54-4.28,6.29-7,8.85-7.08,6.73-15.72,8.22-20.19-2.76-.36-.88-1-2.16-.67-2.75,3.38-5.75,6.28-12,10.63-16.9,5.08-5.77,11.81-10,17.2-15.58,7.14-7.34,15.59-7.89,25-7A110.26,110.26,0,0,0,197.6-70c3.29-.27,5.84-2.94,4.65-6.18-.74-2-3.69-4-6-4.59-7.55-1.94-15.29-3.1-22.9-4.85-2.49-.57-6.5-.77-5.64-4.67.69-3.17,2.21-7.3,4.68-8.74,11.31-6.6,23.45-6,35.52-2,5.53,1.81,10.9,4.1,16.35,6.15,7.45,2.81,12.34.37,17.63-6.08,7.24-8.83,13.93-18.14,20.51-27.5,1.76-2.5,2.51-5.71,3.65-8.8-33.91-9.92-70.85,6-105.9,5.62-16.34,5.4-32.38,11.77-48.34,18.25-3.64,1.48-17.88,9-20.82,11.58-8.58,7.39-48.39,9.39-48.88-2.39-.5-12,9.13-5.76,25.89-8.54,11.86-2,13.61-15.77,12.79-18.83-1.26-4.69-8.72-28.88-23.46-25.54-5,1.12-15.5,9.34-17.34,14.77a76.62,76.62,0,0,0-4,17.32c-.51,4-4.34,5.65-7.61,7.29-2.87,1.44-6.05-3.27-7.12-4.3-.21-.21-5,3.76-3.18-1.26,4.11-11.08,1.62-20.52,9.39-30.23,3.78-4.73,14.37-12.47,14.42-12.94.7-7.09-6.9-6.92-11.57-2.55-18.84,17.62-18.23,12.18-17.8,30.4.13,5.55-9.7,10.28-10.78,2.72-.38-2.66.06-1.41-1.74,6.87-.57,2.62-3.65-12.91-3.16-16.59,2.61-19.82,17.28-30.17,28.8-37.44,5.85-3.7,1.1-3.43.36-4.68-3.75.6-14.26-.46-19.08,3.6-6.84,5.76-4.8,28.24-11.16,24.84-4.47-2.39-8.64,11.52-9.36,2.52-.46-5.72,4.09-27.95,6.84-32.76C-1-199.67,8.86-199.69,14.67-203.3c0,0-6.31-15.45,21.77-12.93,10.75,1,22.18.12,32.43,4.33,15.56,6.39,18.18,15.05,34.45,19,55.63-1.1,69.38-77,66.07-121.53-7.74-82.69-41.95-58.73-176.27-95-26.64-7.2-26.64-7.2-47-20.43-5.08-3.29-6.08-10.53-9.41-15.62-.52-.8-2.33-.71-3.49-1.15-4.29-1.62-8.66-3.08-12.78-5.06-14.25-15.88-7.14-51.13,9.56-65.68C-62-522.09-54.26-527.51-47.82-534c6-6,34.16-19.77,38.17-27.28,5.77-10.79,9-22.57,11.31-34.7,1.53-8.16,4.77-16,7.19-24,2.67-8.84,9.55-13.88,16.77-18.55,13.82-8.94,25.26-19.94,30.93-35.85a34.54,34.54,0,0,0,1.84-9.51c.22-3.77-2.55-5.07-5.77-4.6-7.44,1.09-13.25-1.07-18.8-6.39-6.4-6.15-9.52-13.31-12.22-21.6-2-6.21-4.17-12.73-7.88-18.77C10.47-740.53,6-743.47,2.1-747.52c-.91-1-2.34-1.72-2.74-2.85-3.39-9.75-7.12-19.44-9.69-29.42-1.92-7.43-2.52-15.25-3.23-22.94a108.82,108.82,0,0,1,0-14.89c.28-6,2.1-11.22,7.54-13.39a.77.77,0,0,0,.36-1.12c-.91-1.53-1.77-2.69-1.94-3.94-.07-.53,2-1.45,3.23-2,2.46-1.22,4.18-2.33,2.23-5.63-1.48-2.5-1.09-4.93,2.91-4.57,3,.28,4.26-1.44,3.13-4-2.15-4.82-1.81-5.84,3.05-5.85a.78.78,0,0,0,.65-.33c3.78-5.31,3.88-11.35,4-17.58.1-5.57,1.11-11.14,2-16.67a133.2,133.2,0,0,1,10.71-34.73c3.48-7.68,9-10,17-7.56,42.28,14-35,45.07,31,134.43,5.06,8.18,10.11,16.37,15.24,24.5a30.16,30.16,0,0,0,3,3.64.78.78,0,0,0,.92.19c13.27-6.17,18.34-1,24.83,8.43,6.2,9,13.86,14.07,24.37,13.57,4.93-.24,9.75-3.17,14.58-5,1-.38,1.84-1.48,2.86-1.7,12.89-2.73,25.68-6.56,38.71-7.74,19.66-1.77,44.12-4,63.52,5.45,29.15,14.22,40.32,13,68.16,6.34,21.63-5.15,22.75-26.28,30-44,25.66-62.46,78.22-75.42,127.23-110.56,7.22-5.18,17.18.75,24.56,7.17,25.76,25.92,44.36,66.4,48.51,102.5,3.49,23.89-15.39,40.4-16.23,63.21,5.53,61.23,10.82,49-30.6,93.86-3.36,4.52-1.8,8.35,3.58,10.14,9.75,3.23,16,9.87,20.35,19.07a.59.59,0,0,0,.1.17c99.38,119.45,279.37,58.69,395,221.78C1092.24-162,989,92.59,951,291c-42.08,271-8.66,642-188.5,861.88-146.34,181.09-388,331.62-607.91,306.19C10.41,1442.37-174,1327.5-109.67,1117.29Z" transform="translate(122.87 935.92)"/><path d="M-6.76-105.35" transform="translate(122.87 935.92)"/></svg>