<svg id="Camada_1" data-name="Camada 1" xmlns="http://www.w3.org/2000/svg" viewBox="0 0 554.08 254.75"><path d="M286,487.6c-2-.55-3.84-.53-5.41.87-1.13,1-2.23,2-3.31,3.12a40.55,40.55,0,0,1-3.19,3.23,6.41,6.41,0,0,1-3,1.26,5.13,5.13,0,0,0-3.31,1.43,7.71,7.71,0,0,1-1.59,1c-.13-.4-.24-.55-.22-.69.44-2.63.71-5.34,3.36-6.9a20.41,20.41,0,0,0,5.82-5.29c.91-1.19,2-2.23,3-3.5a15.17,15.17,0,0,0-2.21,1.38c-1,.84-1.78,1.82-2.68,2.73a3.53,3.53,0,0,1-4,1.08,3.17,3.17,0,0,0-3,.56c-.53.38-1.11.68-1.67,1l-.32-.21a10.53,10.53,0,0,1,.18-1.69,8.31,8.31,0,0,1,3.69-5.1c2.05-1.35,3.93-3,5.89-4.47a32,32,0,0,1,2.68-2,4.78,4.78,0,0,1,3.83-.44c1.73.48,3.45,1,5.21,1.35a8.08,8.08,0,0,0,2.73.15,3.12,3.12,0,0,0,1.76-.86,1.46,1.46,0,0,0-.48-2.64,12.6,12.6,0,0,0-2.63-.77,2.27,2.27,0,0,1-1.86-1.65,2.39,2.39,0,0,1,.65-2.53c2.4-2.46,5.75-2.12,8,.73,1.73,2.23,4.27,1.91,6.62,1.65,2.09-.24,3.92-1.32,4.27-3.59a11,11,0,0,0-.25-4.6c-.92-3.09-2.15-6.09-3.27-9.12a1.86,1.86,0,0,0-1.83-1.3c-4.8-.09-9.59-.2-14.39-.25-.29,0-.85.45-.85.69a11,11,0,0,0,.31,3.36,30,30,0,0,0,1.93,3.84c.19.35.38.7.54,1.07a4,4,0,0,1-3.71,5.43,3,3,0,0,1-2.71-3.49c.13-.57.23-1.15.41-2a30,30,0,0,0-4.06.91,45.53,45.53,0,0,0-6.18,2.74,10,10,0,0,0-4.36,5c-.77,1.84-1.46,3.72-2.34,5.5a3.56,3.56,0,0,1-1.71,1.43,10.79,10.79,0,0,0-5.44,5.27c-.06.13-.22.22-.48.46-.23-.41-.59-.76-.59-1.11a12.68,12.68,0,0,1,.22-3.91,32.46,32.46,0,0,1,2.38-4.8c.56-1.05,1.23-2,1.75-3.1.95-2,1.6-4.08,3.19-5.69.06-.06,0-.21.1-.54a3.48,3.48,0,0,0-1,.3c-1.48,1.11-3,2.16-4.39,3.41-1.78,1.63-3.32,3.53-5.16,5.08a5.22,5.22,0,0,1-3.21,1.2c-2,0-2.66,1.38-3.57,2.59a9,9,0,0,0-.83,1.85,4.64,4.64,0,0,1-.48-5.05,14.64,14.64,0,0,1,3.81-4.54,11.87,11.87,0,0,0,2.32-2.81c1.65-2.76,4.28-4.06,7.13-5.08.3-.11.61-.21.9-.34.09,0,.16-.17.53-.59a7.62,7.62,0,0,0-1.85-.2,14.76,14.76,0,0,0-6,3.06c-2,1.45-3.77,3.09-5.72,4.55a4.8,4.8,0,0,1-2.18.85,4.6,4.6,0,0,0-4.32,3.64c-.07.22-.14.44-.23.7a4.07,4.07,0,0,1-.51-3.34c.76-3.3,3-5.39,5.69-7.16a48.7,48.7,0,0,0,5.24-3.93c-3,.13-6.27-1.54-8.59,2.11-.22-2.39.56-3.92,2.26-4.76,2.07-1,4.25-1.82,6.38-2.71a18.43,18.43,0,0,0,2.6-1.17,8.71,8.71,0,0,1,6.12-1,26.16,26.16,0,0,0,4.15.19,3.35,3.35,0,0,0,1.61-.76c-3-.82-6-2.06-9.17-1.08-2.86.88-5.73,1.74-8.52,2.79-3.77,1.42-7.48,3-11.21,4.54a18,18,0,0,0-6.34,4.39,38.58,38.58,0,0,1-5.56,4.71c-5.77,4.17-11.59,8.25-17.42,12.32a37.31,37.31,0,0,0-10.68,11.53,97.27,97.27,0,0,1-12.92,16.6c-1.42,1.5-1.48,2.12-.25,3.73a3.8,3.8,0,0,1,.81,3.47,39.5,39.5,0,0,1-1.46,4.67c-.66,1.59-1.52,1.55-2.65.26a11.23,11.23,0,0,1-2.63-6.54,7.34,7.34,0,0,0-.73-2.5,1.78,1.78,0,0,0-2.89-.75,8.52,8.52,0,0,0-2.32,2.79c-.82,1.68-1.21,3.55-2,5.26a16,16,0,0,1-1.92,2.78c-.78,1.09-1.59,2.16-2.4,3.22a9,9,0,0,1-.75.76,4.18,4.18,0,0,1-.8-.83c-.56-1-1.05-2.06-1.56-3.09-.83-1.67-.66-2.47.47-4s2.25-3.18,3.31-4.81a2.1,2.1,0,0,0,.15-1.46,19.44,19.44,0,0,0-1.6,1.39,21.6,21.6,0,0,1-6.2,4.44c-1.76.87-3.47,1.82-5.19,2.75a4.86,4.86,0,0,1-4,.47,3.77,3.77,0,0,0-3.43.42,1.33,1.33,0,0,1-.54.25c-.74.1-1.49.16-2.23.23.06-.8-.13-1.77.25-2.37a7.15,7.15,0,0,1,2.41-2.42c2.9-1.6,5.9-3,8.86-4.48a2.55,2.55,0,0,0,1.1-.8c-.67.12-1.33.26-2,.36-1.38.23-2.75.48-4.13.64a4.6,4.6,0,0,1-4.17-1.31c-.4-.42-1.36-.39-2.06-.41a6.58,6.58,0,0,0-1.61.38c0-2.18,2.62-4.59,5.1-4.9s5-.48,7.46-.91A54.17,54.17,0,0,0,158,499.7a7.76,7.76,0,0,1-1.35-.48c-.92-.52-1.76-1.17-2.7-1.63s-2.09-.83-3.2-1.25a3,3,0,0,1,2.92-2.8,31.59,31.59,0,0,1,6.66.32,8.84,8.84,0,0,0,8.46-2.82c1.29-1.41,2.45-3,3.65-4.44a36.45,36.45,0,0,1,2.58-3.3c2.82-2.82,3.55-6.2,3.09-10a24.09,24.09,0,0,1,.33-8.46,16.27,16.27,0,0,0-1-9.39,38.11,38.11,0,0,0-5.61-10,8.93,8.93,0,0,0-1.22-1.31c-1.46-1.29-2.79-1.44-4.32-.21-1.87,1.49-3.65,3.11-5.39,4.75-4.31,4-8.34,8.29-11.11,13.57a22.46,22.46,0,0,0-2.86,8.57,7.78,7.78,0,0,0,1.88,6.12c1.41,1.57,2.81,3.18,4.35,4.62a4.8,4.8,0,0,1,1.34,5.44.88.88,0,0,1-.07.23l-.81,1.72a8.45,8.45,0,0,0-.91-1.5,2.39,2.39,0,0,0-1.32-.83,6.37,6.37,0,0,1-3.75-1.68c-1.06-.91-2.08-1.87-3.18-2.74-2.45-1.94-4.28-1.64-5.71,1.17-1.15,2.27-2,4.69-3,7a18.11,18.11,0,0,1-1.52,3.24,11.35,11.35,0,0,1-2.32,2.15c-1,.78-2,1.48-3.16,2.27a3.3,3.3,0,0,1-.78-2.76c.58-3.06,1.13-6.11,2.8-8.84a27.83,27.83,0,0,0,1.63-3.88l-.47-.34a22.94,22.94,0,0,0-2.51,1.69c-1.7,1.51-3.23,3.23-5,4.65a18.54,18.54,0,0,1-4.84,3,9.82,9.82,0,0,1-4.43.21,5.21,5.21,0,0,0-3.56.57A10.28,10.28,0,0,1,110,493a3.5,3.5,0,0,1,.44-3.05,7.42,7.42,0,0,1,3.79-3.17c1.64-.64,3.29-1.24,4.9-1.93a11.31,11.31,0,0,0,5.9-5.25l-2.85.83c-2.32.71-4.64,1.46-7,2.14a4.49,4.49,0,0,1-3.59-.38,4.31,4.31,0,0,0-4.55,0,10.82,10.82,0,0,1-2.06.68l-.36-.4a14,14,0,0,1,1.64-2.46,18.62,18.62,0,0,1,3.29-2.58,9.53,9.53,0,0,1,2.38-.7c3.13-.92,6.26-1.82,9.38-2.78a3.19,3.19,0,0,0,1.51-1.19H114.2a3,3,0,0,1,2-2.86,50.64,50.64,0,0,1,5.68-1.8c1.46-.39,3-.55,4.45-.92a7.53,7.53,0,0,0,5.81-5.48c.94-3.42,1.67-6.9,2.42-10.37A119.44,119.44,0,0,0,137,425.74a25.46,25.46,0,0,1,.25-3.7c.85-6.14-.79-11.68-3.83-17-1.17-2-2.05-4.22-3.12-6.31q-1.35-2.67-2.83-5.27a15.79,15.79,0,0,1-2.57-7.38,2.41,2.41,0,0,0-1.25-1.68c-4.89-2.2-8.22-6.13-11.51-10.1a4.73,4.73,0,0,0-2.8-1.84,273.36,273.36,0,0,1-34.17-10.14c-10.75-3.84-21.57-7.48-32.31-11.34a67.13,67.13,0,0,1-8.37-3.83,12,12,0,0,1-2.87-2.62c-1.76-1.9-3.43-3.88-5.18-5.8-1.3-1.41-2.7-2.73-4-4.16a7,7,0,0,1-1.87-4.91c.1-4.56,1.78-8.35,5.89-10.54a137.64,137.64,0,0,1,12.67-5.93c7.57-3.09,15.36-5.69,22.57-9.61,3.26-1.77,6.38-3.79,9.55-5.72,9.17-5.6,18.22-11.39,28-16a77.54,77.54,0,0,1,25.46-7c.15-.58.28-1.24.49-1.88,1.23-3.86,4.95-5.27,8.27-2.95a16.86,16.86,0,0,1,3.47,3.72,1.64,1.64,0,0,0,1.84.83,20.47,20.47,0,0,0,7.41-2.58,74,74,0,0,1,6.82-4c5.12-2.44,11-.54,13.32,4.34.69,1.48.65,3.32.82,5,.08.8.34,1.29,1.11,1.46,9.83,2.19,17.36,8.37,25,14.44q2.29,1.83,4.61,3.64c4.75,3.76,12.11,5.89,19.43.4a191.08,191.08,0,0,1,31.41-19c12.82-6.22,26.25-10.21,40.54-10.92,6.19-.31,12.4-.71,18.57-.4a102,102,0,0,1,44.09,12.13,124.75,124.75,0,0,1,16,10.47,48.13,48.13,0,0,1,4.46,4c4.46,4.41,9.11,8.66,13.26,13.35,6.79,7.7,11.63,16.65,15.91,25.95a112.69,112.69,0,0,1,8.86,31.45c.82,5.72,1,11.53,1.51,17.29.77,9.23.17,18.45-.18,27.67a45.11,45.11,0,0,0,2.76,17.86,9.69,9.69,0,0,0,5.64,5.84c17.62,7.28,35.09,14.93,53.78,19.34,8.87,2.1,17.75,4.11,26.75,5.41,13.72,2,27.48,3.71,41.22,5.49q8.91,1.15,17.86,2a32.43,32.43,0,0,0,5.74-.12,11.85,11.85,0,0,0,5.53-2.11c.84-.55,1.8-1,2.77-.23a2.5,2.5,0,0,1,.66,3.06,13.75,13.75,0,0,1-1.57,2.8c-3.31,4.6-7.91,7.17-13.32,8.54a107.2,107.2,0,0,1-21.47,2.85c-11.73.59-23.4-.48-35.07-1.38-14.41-1.11-28.61-3.62-42.74-6.46a229.18,229.18,0,0,1-41.71-12.87c-5.09-2.08-10.24-4.05-15.38-6a34.35,34.35,0,0,0-10.79-2.07c-1.78-.07-3.57.41-5.36.47-3,.09-6.08,0-9.11.06-13.36.42-26.65,1.53-39.6,5.06a39.13,39.13,0,0,0-8.23,3.49,14.11,14.11,0,0,0-6.9,8.57,18.91,18.91,0,0,1-5.86,8.8,56.69,56.69,0,0,0-7.13,8.37A42.24,42.24,0,0,1,295.46,499a7.81,7.81,0,0,0-4.4,5.49,17.07,17.07,0,0,1-1.83,3.81c-.31.6-.68,1.17-1,1.75a7.93,7.93,0,0,1-5.25,3.68c-.12-1.63-.39-3.06.27-4.56a22.32,22.32,0,0,0,1.2-4c1.14-4.84,3.19-8.88,8.57-10.12.33-.08.66-.21,1.05-.34a1.57,1.57,0,0,0-1.62-1.3,8.67,8.67,0,0,0-7.19,2.88c-1.52,1.5-2.74,3.29-4.14,4.92a12.42,12.42,0,0,1-2.44,2.42,4.74,4.74,0,0,1-2.48.47c-.68,0-1.52-.63-2-.4a17.59,17.59,0,0,0-3,2.14c-.36.28-.45,1.21-1.08.67a1.77,1.77,0,0,1-.52-1.59,29,29,0,0,1,3.08-4.93c2.17-2.61,4.55-5,6.88-7.51,1.67-1.78,3.36-3.55,5.83-4.26a1.3,1.3,0,0,0,.41-.23A2.57,2.57,0,0,0,286,487.6Z" transform="translate(-20.6 -266.88)"/></svg>