<?xml version="1.0" standalone="no"?>
<!DOCTYPE svg PUBLIC "-//W3C//DTD SVG 20010904//EN"
 "http://www.w3.org/TR/2001/REC-SVG-20010904/DTD/svg10.dtd">
<svg version="1.0" xmlns="http://www.w3.org/2000/svg"
 width="1509.000000pt" height="1536.000000pt" viewBox="0 0 1509.000000 1536.000000"
 preserveAspectRatio="xMidYMid meet">
<metadata>
Created by potrace 1.16, written by Peter Selinger 2001-2019
</metadata>
<g transform="translate(0.000000,1536.000000) scale(0.100000,-0.100000)"
fill="#ffffff" stroke="none">
<path d="M6646 15344 c-26 -15 -28 -19 -22 -57 18 -108 19 -139 5 -148 -8 -5
-48 -9 -90 -9 -61 0 -82 -4 -100 -19 -35 -29 -20 -45 107 -121 111 -67 123
-81 143 -155 6 -22 29 -62 50 -90 22 -27 48 -63 56 -79 16 -27 16 -29 -11 -57
-53 -56 -83 -47 -178 50 -66 68 -115 94 -270 146 -115 39 -144 42 -153 20 -8
-21 20 -49 88 -91 66 -40 138 -115 180 -189 33 -57 36 -77 13 -96 -9 -7 -44
-54 -77 -103 -33 -49 -77 -108 -97 -130 -53 -59 -106 -141 -199 -311 -129
-234 -151 -262 -560 -710 -280 -307 -374 -413 -663 -750 -113 -132 -245 -283
-293 -335 -300 -326 -738 -881 -1122 -1420 -188 -264 -413 -641 -570 -953
-160 -320 -367 -679 -603 -1042 -191 -295 -284 -466 -459 -847 -191 -417 -244
-577 -321 -963 -39 -197 -75 -311 -150 -477 -74 -164 -138 -258 -295 -438 -70
-80 -129 -146 -130 -148 -1 -1 -90 -20 -198 -41 -108 -22 -202 -43 -209 -47
-28 -17 -236 -204 -289 -260 -116 -123 -181 -233 -214 -359 -28 -109 -28 -110
93 -226 103 -100 201 -182 250 -208 28 -15 29 -13 36 101 7 121 11 126 91 126
78 1 115 19 115 58 0 14 -7 56 -16 95 -15 67 -15 73 5 137 28 92 113 218 171
254 66 40 152 49 488 51 l297 2 83 -27 c160 -54 277 -63 792 -63 512 0 510 0
940 70 151 25 316 49 365 55 101 11 790 13 818 1 16 -6 4 -28 -86 -166 -57
-88 -117 -185 -134 -215 -34 -60 -60 -136 -50 -146 4 -4 29 3 58 15 28 12 54
19 57 16 4 -4 -42 -54 -103 -111 -109 -102 -120 -122 -47 -85 51 26 112 51
112 46 0 -2 -80 -66 -177 -142 -324 -249 -379 -301 -278 -259 21 9 41 16 46
16 16 0 9 -30 -16 -70 -14 -22 -23 -40 -20 -40 3 0 23 12 45 26 21 14 44 24
50 22 6 -2 -29 -57 -77 -123 -48 -66 -123 -176 -166 -245 -91 -142 -164 -244
-231 -319 -52 -58 -55 -65 -25 -56 25 8 25 8 -57 -127 -65 -108 -69 -125 -19
-101 19 9 37 14 40 11 3 -3 -6 -31 -20 -63 -18 -40 -24 -67 -20 -87 9 -38 -7
-61 -114 -171 -113 -117 -180 -169 -336 -262 -113 -68 -154 -86 -315 -138
-139 -46 -179 -62 -160 -67 l24 -6 -29 -21 c-52 -36 -287 -150 -370 -178 -172
-59 -304 -147 -197 -132 20 3 44 8 53 12 18 7 36 -23 22 -36 -4 -4 -44 -22
-88 -40 -148 -58 -326 -161 -380 -219 l-30 -32 58 7 c31 3 57 3 57 -2 0 -11
-198 -143 -260 -174 -36 -18 -69 -23 -160 -28 l-115 -6 58 -24 c31 -13 57 -26
57 -30 0 -7 -62 -31 -263 -102 -96 -33 -120 -46 -128 -65 -9 -24 -25 -35 -172
-120 -43 -25 -77 -48 -74 -50 2 -2 23 3 47 11 88 31 47 4 -129 -85 -180 -91
-232 -124 -252 -163 -11 -19 -9 -20 35 -15 32 4 46 2 46 -6 0 -7 -46 -55 -101
-106 -98 -90 -179 -182 -179 -201 0 -15 20 -10 52 12 35 25 41 22 28 -17 -8
-25 -60 -324 -60 -347 0 -5 11 -6 25 -3 35 9 32 -10 -13 -80 -21 -32 -42 -65
-47 -73 -7 -12 2 -13 54 -7 33 4 61 5 61 2 0 -3 -10 -21 -21 -41 -12 -20 -19
-38 -17 -41 3 -2 22 3 42 11 43 18 73 15 38 -4 -27 -14 -29 -31 -4 -31 29 0
32 -10 16 -48 -17 -42 -13 -49 21 -34 47 22 55 16 55 -39 l0 -51 33 20 c41 25
217 95 223 89 3 -2 -32 -48 -76 -101 -44 -53 -78 -96 -75 -96 3 0 54 22 113
49 154 69 152 69 152 32 0 -36 -1 -36 47 -16 19 8 44 15 56 15 17 0 19 -5 14
-35 -3 -19 -4 -35 -1 -35 25 0 482 327 556 398 21 20 41 32 45 28 4 -4 -7 -35
-25 -68 -19 -33 -32 -62 -29 -64 2 -2 45 25 96 61 51 36 94 65 96 65 2 0 5
-21 7 -47 l3 -46 55 47 c30 26 71 56 92 67 20 10 65 40 100 67 65 50 107 76
113 70 2 -2 -9 -25 -26 -51 -41 -67 -16 -61 72 16 90 78 119 100 124 95 2 -2
-7 -27 -20 -56 -13 -29 -22 -52 -19 -52 3 0 26 14 51 31 25 18 65 38 90 45 54
16 64 24 281 193 95 75 178 138 184 140 6 2 9 -12 6 -38 -2 -22 -2 -41 0 -41
2 0 36 28 75 61 l71 62 13 -32 c7 -17 17 -31 21 -31 21 0 169 136 396 363
l249 249 -7 -49 c-4 -26 -9 -65 -12 -85 -8 -54 9 -48 53 19 l38 57 5 -55 5
-54 61 85 c33 47 112 159 174 250 156 229 202 290 216 290 6 0 17 -20 23 -45
6 -25 13 -45 16 -45 2 0 23 35 46 78 34 62 69 103 175 207 84 83 150 158 182
208 100 154 261 496 317 672 l32 100 19 -65 c21 -70 36 -81 44 -34 l6 29 12
-34 c7 -19 15 -31 18 -28 4 3 6 97 5 209 -1 190 11 417 26 463 5 16 11 9 33
-37 l27 -58 5 50 c3 28 8 53 12 57 3 3 17 -4 31 -17 14 -13 27 -22 29 -19 2 2
9 48 15 103 14 124 21 138 44 91 10 -20 22 -33 27 -30 19 11 58 99 170 381
127 316 190 464 199 464 4 0 21 -28 38 -62 l31 -63 16 38 c9 20 23 53 30 72
17 39 32 45 41 15 14 -44 30 -16 95 165 59 164 85 204 191 292 105 87 111 89
151 52 18 -17 80 -58 137 -92 118 -71 256 -182 352 -283 36 -39 131 -149 211
-245 80 -96 154 -181 164 -190 11 -9 73 -29 139 -44 80 -19 145 -41 199 -69
93 -48 192 -137 201 -181 3 -16 17 -73 30 -125 45 -180 66 -419 51 -577 -10
-111 -18 -97 99 -174 33 -21 75 -50 94 -64 43 -32 106 -33 163 -4 23 12 69 30
102 41 34 11 83 34 110 51 27 17 69 36 95 42 74 19 82 43 81 271 0 270 -25
434 -109 724 l-40 135 25 30 c210 260 304 431 494 905 144 357 620 1309 838
1673 116 194 169 263 537 697 321 377 751 905 1104 1355 546 695 576 728 1025
1128 442 395 770 690 961 867 248 229 453 410 630 559 83 69 237 201 343 293
105 92 209 178 230 191 76 48 101 52 377 52 l260 0 48 33 c58 41 85 90 71 130
-7 20 -28 37 -85 65 -82 42 -156 56 -290 57 -44 0 -82 5 -92 13 -16 11 -16 15
4 54 17 35 22 71 29 193 l8 151 52 107 c28 59 68 129 88 155 42 56 127 122
214 169 68 36 87 65 70 103 -26 56 -114 80 -202 55 -20 -5 -94 -18 -165 -29
-72 -11 -147 -27 -167 -35 -21 -9 -54 -16 -75 -16 -86 0 -155 -62 -247 -225
-51 -89 -61 -124 -80 -296 -16 -143 -35 -190 -91 -233 -52 -40 -186 -101 -475
-217 -527 -211 -511 -207 -1017 -219 l-374 -8 -241 124 c-318 164 -358 195
-358 275 0 20 27 132 61 250 50 177 62 231 66 314 9 177 -15 269 -100 385 -81
110 -267 326 -301 348 -83 56 -469 173 -685 208 -140 22 -295 20 -365 -6 -31
-11 -81 -29 -111 -40 -31 -11 -134 -34 -231 -50 -456 -77 -597 -151 -1014
-531 -179 -163 -268 -236 -319 -261 -55 -27 -157 -35 -255 -20 -81 13 -106 31
-310 216 -158 144 -208 184 -359 286 -209 140 -331 281 -274 317 6 4 98 8 202
8 238 0 254 7 234 96 -6 24 -17 55 -25 68 -23 34 -182 105 -311 139 -124 32
-158 50 -175 90 -6 15 -12 88 -12 162 -1 113 3 150 23 226 l25 90 -33 70 c-35
75 -159 266 -213 327 -38 44 -57 43 -88 -8 -25 -41 -25 -59 0 -93 27 -36 80
-185 80 -223 l0 -30 -31 18 c-52 30 -152 134 -211 218 -60 85 -158 195 -173
195 -6 -1 -23 -8 -39 -16z"/>
</g>
</svg>
