<?xml version="1.0" encoding="UTF-8" standalone="no"?>
<!-- Created with Inkscape (http://www.inkscape.org/) -->

<svg
   version="1.1"
   width="269.71698mm"
   height="144.18742mm"
   viewBox="0 0 269.71698 144.18743"
   id="svg8"
   sodipodi:docname="Sarcophilus.svg"
   inkscape:version="1.3.2 (091e20e, 2023-11-25, custom)"
   xmlns:inkscape="http://www.inkscape.org/namespaces/inkscape"
   xmlns:sodipodi="http://sodipodi.sourceforge.net/DTD/sodipodi-0.dtd"
   xmlns="http://www.w3.org/2000/svg"
   xmlns:svg="http://www.w3.org/2000/svg">
  <sodipodi:namedview
     id="namedview1"
     pagecolor="#505050"
     bordercolor="#eeeeee"
     borderopacity="1"
     inkscape:showpageshadow="0"
     inkscape:pageopacity="0"
     inkscape:pagecheckerboard="0"
     inkscape:deskcolor="#d1d1d1"
     inkscape:document-units="mm"
     inkscape:zoom="0.55307694"
     inkscape:cx="824.47841"
     inkscape:cy="321.83587"
     inkscape:window-width="1920"
     inkscape:window-height="1057"
     inkscape:window-x="1912"
     inkscape:window-y="-8"
     inkscape:window-maximized="1"
     inkscape:current-layer="svg8" />
  <defs
     id="defs2" />
  <path
     d="m 1.89112,121.2715 c 0,0 5.87994,2.67269 8.0849,3.20723 2.20498,0.53454 -1.06908,1.20271 -1.06908,1.20271 0,0 10.69078,2.00451 13.56392,2.40544 2.87316,0.40089 6.815369,0.60134 9.354451,0.4677 2.53905,-0.13361 6.949019,-0.33406 6.949019,-0.33406 l -0.467741,0.93543 4.276312,-0.66818 c 0,0 -1.40317,1.33636 -0.26726,1.00227 1.13588,-0.33409 4.209499,-1.26952 7.14947,-2.60588 2.939939,-1.33636 4.075851,-2.20498 6.280809,-3.60815 2.204982,-1.40316 5.14495,-2.80633 5.813131,-3.74176 0.66815,-0.93544 2.271789,-3.74177 2.271789,-3.74177 0,0 3.608131,-7.75083 5.41219,-8.88672 1.80409,-1.1359 7.884451,-12.093941 8.285371,-12.762111 0.4009,-0.66819 1.53678,-3.27406 1.53678,-3.27406 0,0 -0.0668,-0.20046 0.20048,-0.46771 0.26725,-0.26729 0.467699,-0.40092 0.467699,-0.40092 0,0 2.672712,2.53907 3.00678,2.93996 0.334092,0.40091 2.138172,2.6059 2.138172,2.6059 l -1.469991,1.5368 1.87089,0.26725 c 0,0 0.534541,0.60138 0.668179,1.26955 0.133641,0.66815 -0.267279,2.539041 -0.601369,4.009021 -0.334089,1.47 -0.53454,2.33862 -0.200451,4.40997 0.33409,2.07131 -2.071338,4.54358 -2.873139,5.34537 -0.80182,0.80182 -1.470001,1.20272 -2.071341,1.93771 -0.60135,0.73498 -0.86863,1.46999 -0.668179,2.00453 0.200449,0.53454 3.48012,7.73314 4.23609,8.67807 0.755939,0.94493 0.944931,1.51191 2.36233,3.68528 1.417421,2.17336 0.94496,3.02381 2.74034,3.87424 1.79538,0.85045 5.10268,1.13395 6.614581,1.13395 1.511908,0 6.142118,-0.18899 6.142118,-0.18899 0,0 0.0945,-3.1183 -0.2835,-4.06326 -0.37796,-0.94494 -1.03942,-3.40178 -2.362329,-3.87424 -1.32292,-0.47247 -6.331109,-1.32292 -6.331109,-1.32292 0,0 -0.755941,-1.7009 -0.377981,-2.36236 0.377981,-0.66146 3.118289,-3.1183 3.118289,-3.1183 l 3.685281,-2.83482 -3.02382,9.92187 6.331119,9.21316 c 0,0 4.86643,3.68529 5.38616,4.44124 0.51971,0.75595 0.85045,2.3151 1.98436,2.78757 1.13393,0.47247 3.96875,-0.0945 3.96875,-0.0945 0,0 3.69477,-0.91971 3.92863,-0.85289 0.23386,0.0668 1.83748,1.23612 2.23839,1.36976 0.4009,0.13363 2.10474,0.30067 2.27179,0.0334 0.16704,-0.26726 1.5368,-0.20045 1.67043,-0.20045 0.13364,0 1.03567,-1.13589 1.50339,-1.30294 0.46772,-0.16704 1.5368,-0.7684 2.47225,-0.4009 0.93544,0.36749 1.50339,0.56795 1.50339,0.56795 l 0.20045,-1.43658 2.27179,0.63477 c 0,0 0.26728,-0.63477 -0.30068,-1.20271 -0.56795,-0.56795 -2.90655,-1.9043 -3.842,-2.17157 -0.93544,-0.26727 -2.80633,-0.66817 -4.30972,-0.50113 -1.50339,0.16704 -2.40542,0.33409 -3.97563,0.46772 -1.57021,0.13364 -6.88219,-3.14041 -6.88219,-3.14041 l -3.54132,-4.577 c 0,0 2.87314,-3.67495 3.60813,-4.6104 0.73501,-0.93544 10.7576,-12.36121 10.7576,-12.36121 l 3.54133,-5.67948 8.01808,-12.294401 c 0,0 -2.67269,1.26953 2.00452,-0.33407 4.67722,-1.60363 5.54584,-2.13817 5.81312,-2.2718 0.26726,-0.13363 1.93771,-0.46773 1.93771,-0.46773 l 0.66816,0.86863 1.00226,-1.00225 0.26728,0.8018 c 0,0 1.60361,-1.33634 2.40543,-1.67044 0.8018,-0.33408 2.20496,-0.80181 3.60813,-0.4009 1.40316,0.4009 7.81764,1.67043 8.15172,1.80407 0.33409,0.13363 5.47903,0.86863 6.01357,0.86863 0.53454,0 3.07622,0.0894 3.07622,0.0894 0,0 1.27567,7.370531 1.22841,7.843001 -0.0472,0.47247 0.0945,3.40178 0.0945,4.20498 0,0.8032 0.75594,4.86644 0.56696,6.47284 -0.18899,1.6064 -0.66147,5.85863 -0.75595,6.61459 -0.0945,0.75595 -0.37799,3.02381 -0.61422,3.35453 -0.23623,0.33073 -0.85045,1.74814 -0.75594,2.26786 0.0945,0.51972 0.6142,1.93713 0.6142,1.93713 l 0.42522,1.84263 c 0,0 -0.28348,0.85045 -0.37797,2.45685 -0.0945,1.6064 0.37797,3.1183 0.51971,3.40178 0.14174,0.28349 0.56697,0.85045 0.42522,1.27567 -0.14174,0.42523 -0.18897,0.85045 -0.18897,1.6064 0,0.75596 0.66145,1.79539 1.3229,2.07887 0.66147,0.28348 2.07888,0.33073 2.07888,0.33073 l 4.01599,0.89769 2.17337,-0.14174 1.6064,0.0945 0.28347,1.27567 c 0,0 0.42524,0.0472 0.80321,-0.42523 0.37797,-0.47247 0.56697,-0.89769 0.56697,-0.89769 0,0 1.96074,0.33073 2.6222,0.44885 0.66147,0.11812 2.24424,-0.16537 2.36236,-0.42523 0.11812,-0.25985 0.6142,-1.25204 0.77956,-1.34654 0.16537,-0.0945 1.20481,-0.0709 1.44104,0.16537 0.23623,0.23623 0.37797,0.47247 0.37797,0.47247 l 0.0945,-1.13393 1.23913,-0.59517 1.23612,0.40091 c 0,0 0.0334,-1.00226 -0.33407,-1.43658 -0.3675,-0.43431 -3.74178,-1.26953 -3.74178,-1.26953 0,0 -1.03568,0.10023 -1.43657,-0.20045 -0.40091,-0.30068 -0.76841,-0.73499 -1.40318,-0.96885 -0.63475,-0.23386 -1.5702,-0.50113 -2.00452,-0.0668 -0.43431,0.43432 -1.06908,0.93545 -1.67042,0.93545 -0.60136,0 -1.26954,0.10022 -1.46999,-0.20046 -0.20046,-0.30067 -1.10249,-4.04245 -1.1693,-4.47676 -0.0668,-0.43431 0.36749,-3.842 0.46772,-4.6104 0.10023,-0.7684 1.73724,-6.08038 1.73724,-6.24743 0,-0.16704 3.32881,-14.02972 3.32881,-14.02972 0,0 3.44904,4.53571 4.205,5.95312 0.75595,1.41742 2.97656,5.95313 3.59077,7.1343 0.6142,1.18118 1.98438,4.8192 2.12612,5.81139 0.14174,0.99219 0.14174,1.98437 0.14174,2.4096 0,0.42522 -0.33073,-0.14174 0,0.56696 0.33072,0.70871 1.46465,1.6064 1.84262,1.98438 0.37799,0.37797 0.47247,0.37797 0.70872,1.32291 0.23623,0.94494 0.14174,1.7009 1.13393,2.74033 0.99217,1.03943 2.17335,2.07887 2.17335,2.07887 0,0 -0.37797,0.99219 -0.37797,1.79539 0,0.8032 2.03163,2.74032 2.03163,2.74032 0,0 0.14174,0.0945 0.28348,0.37798 0.14174,0.28348 0.37797,1.6064 0.37797,1.6064 0,0 -0.33074,-0.37798 0.0945,0.23623 0.42522,0.61422 1.93714,1.7009 2.83482,1.79539 0.8977,0.0945 1.88989,0.23624 2.83482,0.0945 0.94495,-0.14174 2.22062,-0.85044 3.63803,-0.37797 1.41741,0.47247 2.55134,0.75595 3.87425,0.66146 1.32292,-0.0945 1.93714,-0.8032 2.88208,-0.61421 0.94493,0.18898 3.96875,-0.23624 3.96875,-0.23624 0,0 0.18897,-0.28348 1.18117,0.0945 0.99219,0.37798 2.36235,1.27567 2.36235,1.27567 0,0 -0.14174,-1.5119 -0.66147,-2.12611 -0.51971,-0.61421 -0.0472,-0.85045 -1.18116,-1.32292 -1.13393,-0.47247 -0.99219,-0.42522 -2.03163,-1.18117 -1.03943,-0.75596 -2.45684,-1.27567 -2.64583,-1.27567 0,0 -0.66147,-0.4725 -2.31511,-0.80323 -1.65364,-0.33073 -2.55134,0 -3.54353,-0.37798 -0.99219,-0.37798 -2.83482,-2.12612 -3.44902,-3.30729 -0.61421,-1.18118 -1.08669,-1.98438 -1.32292,-2.45685 -0.23623,-0.47247 -1.79538,-8.59895 -1.84263,-9.02418 -0.0473,-0.42522 -1.55915,-8.36272 -1.55915,-8.36272 l -1.09793,-9.91668 c 0,0 1.06908,-3.80859 1.20271,-4.209481 0.13363,-0.40091 0.60135,-5.21176 0.80181,-5.81313 0.20044,-0.60135 2.7395,-4.94448 3.87541,-6.48128 1.13589,-1.5368 1.67042,-4.74404 1.80407,-5.54583 0.13363,-0.80182 0.60136,-3.0068 2.33861,-4.47678 1.73724,-1.46998 5.81311,-3.87541 7.08263,-5.21175 1.26954,-1.33634 3.34087,-3.40769 4.34313,-4.47677 1.00226,-1.06907 3.27406,-6.68174 3.27406,-6.68174 0,0 2.53905,-2.87315 3.27405,-3.40768 0.73498,-0.53454 4.40995,-1.93771 5.27858,-2.40543 0.86862,-0.46772 3.80859,-2.6727 3.80859,-2.6727 0,0 6.949,-1.26952 8.95353,-1.26952 2.00452,0 5.34539,-0.46773 5.74628,-0.60135 0.40091,-0.13365 3.14043,-2.20499 3.60815,-2.67271 0.46772,-0.46772 1.73725,-2.73951 1.73725,-2.73951 0,0 2.20497,-1.80407 2.27177,-1.97111 0.0668,-0.16705 0.73502,-1.03567 0.73502,-1.03567 h 1.2361 c 0,0 0.50115,-0.50113 0.60137,-0.80181 0.10023,-0.30068 1.1693,-3.24064 1.1693,-3.54132 0,-0.30068 0.0668,-1.369756 -0.0334,-1.804067 -0.10025,-0.434311 -0.43434,-1.10249 -0.63478,-1.302941 -0.20045,-0.200451 -2.10474,-1.63703 -2.10474,-1.63703 0,0 -6.81537,-5.879931 -8.65286,-7.55036 -1.83747,-1.67043 -2.17155,-1.63703 -2.17155,-2.47224 0,-0.83522 -0.0334,-1.93771 -0.10023,-2.63929 -0.0668,-0.70158 -1.40316,-3.17383 -1.40316,-3.17383 0,0 -1.67045,-0.56794 -2.27179,-0.73499 -0.60136,-0.16704 -2.6727,-1.33634 -3.70837,-2.07134 -1.03567,-0.73499 -3.64155,-2.3386 -4.14268,-2.67269 -0.50113,-0.33409 -1.36975,-0.73499 -1.40317,-1.03567 -0.0334,-0.30068 0,-0.80181 0,-0.80181 l 0.56796,-2.8063301 c 0,0 -0.3341,-4.44335 -0.53454,-4.94448 -0.20045,-0.50114 -0.70158,-1.40317 -1.03568,-1.70385 -0.33408,-0.30068 -0.53453,-0.90203 -1.87089,-0.56795 -1.33634,0.33409 -2.20496,0.80181 -2.63928,1.36976 -0.43431,0.56795 -0.60135,-0.73499 -0.7684,1.804071 -0.16705,2.539059 -0.16705,2.739509 -0.16705,2.739509 l -0.26726,0.86863 c 0,0 -1.30294,-0.20045 -1.9377,-0.601359 -0.63477,-0.400901 -1.77066,-0.7684 -2.33861,-0.935441 -0.56796,-0.16704 -2.7061,-0.0668 -2.7061,-0.0668 0,0 -1.67045,0.0668 -3.0736,0.46772 -1.40317,0.40091 -4.04247,0.7684 -4.1761,0.83522 -0.13362,0.0668 -0.0668,0.10023 -0.26726,0.16704 -0.20046,0.0668 -3.00679,1.36976 -3.00679,1.36976 0,0 -1.13589,-0.63477 -2.3052,-0.7684 -1.1693,-0.13363 -2.27179,-0.30068 -2.93996,-0.20045 -0.66817,0.10022 -2.33861,0.56795 -2.97338,1.1693 -0.63475,0.60136 -1.9377,1.8374801 -2.10475,2.1381601 -0.16703,0.30068 -0.60135,0.66817 -0.90203,1.57021 -0.30067,0.90203 -0.16705,2.97337 -0.23386,3.57473 -0.0668,0.60135 -1.97112,2.17156 -2.27179,2.33861 -0.30068,0.16704 -2.10475,1.10248 -3.84199,1.46998 -1.73726,0.36749 -3.0068,0.63476 -4.77746,0.20045 -1.77066,-0.43431 -3.74176,-0.93544 -5.11153,-0.80181 -1.36974,0.13364 -3.27405,1.10249 -4.47675,1.23612 -1.20271,0.13364 -4.14269,0.66818 -5.67949,1.40317 -1.53679,0.73499 -6.48127,1.67043 -6.48127,1.67043 0,0 -4.27632,-1.80407 -5.27858,-1.9377 -1.00227,-0.13364 -1.40316,-0.40091 -3.60815,-0.0668 -2.20496,0.33409 -5.14493,0.73499 -7.48353,0.46772 -2.33861,-0.26727 -5.54585,-0.33408 -8.75309,-0.33408 -3.20722,0 -6.54809,0.4009 -7.21628,0.60135 -0.66817,0.20045 -11.10857,2.71069 -12.99845,3.18316 -1.88989,0.47247 -8.032,1.889879 -11.33929,3.023809 -3.30729,1.13393 -11.0558,3.874262 -12.00074,4.441222 -0.94493,0.56696 -12.000748,5.575147 -13.89063,6.709077 -1.889879,1.13393 -8.031988,5.76413 -8.976929,6.61458 -0.944941,0.85045 -7.37054,9.5439 -7.37054,9.5439 0,0 -1.41741,1.41741 -2.078871,2.74033 -0.661458,1.32291 -3.307289,4.15773 -4.25223,5.29166 -0.944938,1.13393 -3.590769,4.8192 -3.96875,6.33111 -0.377978,1.5119 -3.496278,10.29985 -3.590769,11.05581 -0.0945,0.75594 -3.307299,9.44939 -3.307299,9.44939 0,0 -5.008182,8.97695 -6.236603,10.772321 -1.228428,1.79539 -7.087057,6.89807 -8.976939,8.88244 -1.889879,1.98438 -3.212798,4.25224 -5.764131,5.66965 -2.55134,1.41741 -7.748518,2.64583 -11.717269,2.64583 -3.96875,0 -9.4494,-0.0945 -9.4494,-0.0945 0,0 -4.63021,-0.94494 -7.46503,-1.03944 -2.83482,-0.0945 -5.85863,-0.33073 -6.94531,0.14174 C 0.99218,117.68184 0,118.48504 0,118.48504 l 1.37016,0.8977 -0.7087,0.42522 0.56695,0.89766 z"
     id="path1023"
     style="fill:#ffffff;stroke:none;stroke-width:0.264583px;stroke-linecap:butt;stroke-linejoin:miter;stroke-opacity:1" />
</svg>
