<?xml version="1.0" encoding="UTF-8" standalone="no"?>
<!-- Created with Inkscape (http://www.inkscape.org/) -->

<svg
   xmlns:svg="http://www.w3.org/2000/svg"
   xmlns="http://www.w3.org/2000/svg"
   version="1.1"
   width="812"
   height="638"
   viewBox="0 0 812 638"
   id="Layer_1"
   xml:space="preserve"><defs
   id="defs7" />
<path
   d="m 66.333,209 -2,6.333 L 60,224.667 55,237 l -7.667,7.667 -6,10.333 -2.667,15.333 -2,10.667 -2.666,12.667 -4.667,6 -2.666,7.333 -2.333,8.667 -2,9 v 14.667 10 8 l -2.334,4.333 -4,9.667 -2.333,7.333 -2.333,9 -1.333,9 L 8.667,404 6.334,416.667 v 6 5 12 L 9,449 l 3,7.667 4.667,7.667 6.666,6.666 6.333,3.667 1.667,5 L 38,488 l 9,6.334 13,5.666 6.333,2 h 10.333 l 10,-3.666 12,-5.334 10.334,-2.666 12.333,-6.334 5.333,-6 12.667,-16 12.667,-8 4.333,3.334 3,-2 1.51,-1.294 0.823,-0.706 3,-3.334 c 0,0 1.667,8.334 1.667,7.334 0,-1 0,-8 0,-8 l 5.333,-0.667 1.667,8.667 3.333,-4 4.667,1.666 2.333,-3.333 1.334,3.333 2,-4.333 1.333,5.667 2.667,-4.667 3,-5 3.667,-1.667 1.333,4 4.333,-2.666 6.667,1 3.667,-3 L 218,444 l 2,4 2.333,-2.666 c 0,0 2.333,3.333 3,2.333 0.667,-1 0,-4.667 0,-4.667 l 3,12.667 1.667,-10 5,1.667 5,2 9.667,3 6,7.333 1.667,2.334 3,-1.334 v 3 l 2.667,-2.333 v 4.667 4.666 l -1.333,4 4.333,-2.333 v 4.333 l 3.333,-0.666 -4.333,12 2.333,2.333 -1.334,7.333 5,-1.666 -1.333,5.999 4,-3.666 V 502 l 3.667,-5.666 -2.667,8.667 v 3 l 2.667,2.666 2.667,-1.666 v 6.666 l -1.333,7 -1.333,7 c 0,0 -0.667,10 0.333,9.667 1,-0.333 4,-4.667 4,-4.667 l 2.332,10.334 -4.333,12 -7,11.666 -7,6 -6.333,7 -11.333,4 h -5.333 l -4,4.334 -4.333,1.666 -5.335,4.334 -7.667,6.666 -3.333,2.667 0.667,3.333 3.667,-2.333 3.333,-1 -0.333,3.333 -4.667,4 -2.667,4.334 0.333,3 h 2.333 l 5.667,-2.334 H 231 l 5.667,0.667 6.333,-1.667 5.333,-2 -0.333,3 -0.333,5 1.667,2.667 h 2.333 l 6.333,-3.333 7.333,-1.667 4,1 9,-4 2.667,1.667 v 1.333 l 3,9 h 8 l 5.333,-1.667 7.333,1.667 9,2 7,-3 6,-2.667 5,1 5.333,-3 4.667,-0.666 v -1.667 c 0,0 5.333,2 5.333,1 0,-1 3,-4.667 3,-4.667 l -1.333,-3.333 c 0,0 -0.667,2.001 1.333,0.667 2,-1.334 3.667,-4 3.667,-4 0,0 3,-3.667 4.333,-4.667 1.333,-1 5.667,-6 5.667,-6 0,0 4,2.333 4,1 0,-1.333 -1.333,-5 0,-5 1.333,0 6.667,-2 6.667,-2 0,0 1.667,-3.001 1.667,-4.667 0,-1.666 0,-4.666 0,-4.666 l -3.001,-6 6.334,-4.334 c 0,0 7.333,-5 9,-5.333 C 390,569.001 395,564.001 395,564.001 l 8.666,-3 -4,-4.334 5.667,-12 6.667,-9.666 c 0,0 0,-1.001 0,-2.334 0,-1.333 4.667,-4.333 5.667,-5.333 1,-1 5.333,-8.667 5.333,-8.667 l 4,-11.333 6,-9 5.333,-10 5.667,-1.333 v -9 l 3.333,5.666 v -8.333 l 4,5.667 -2.333,-12 5,5 1.667,-8.334 2.666,-4.666 c 0,0 6,3.332 5.667,1.666 -0.333,-1.666 0.014,-8 0.014,-8 l 3.653,-2.333 v -3.333 l 3.333,1.666 v -5.666 l 4.668,-11.334 12.666,-2 2.667,-3.333 7.667,5 4,-6 6.333,3.333 7.333,-4.333 5.667,-3.667 7.333,-4.333 8,-1 L 549,412 l 11,-3.666 c 0,0 19,2 20,2 1,0 8.334,5.666 8.334,5.666 l 7.333,10.334 L 607,436.667 612.334,444 614,455.667 V 467.5 l 1.25,8.25 2.25,-6.5 2.5,12.75 2,-7.5 v 4.75 c 0,0 2.25,6 2.25,5.25 0,-0.75 2.25,-5.25 2.25,-5.25 v 8.25 l -2,7 0.75,7 -3,4 -6.5,2.75 -8.75,3.25 -13.75,-1.25 -8,-1.25 -4,3.25 -5.25,5.25 4,1.25 -2.5,8.5 5.75,0.75 2,0.25 4.25,1.75 4.25,1 2.5,1.5 4.25,1.75 3.25,1 h 5.75 l 9.25,-0.25 7.75,4 8.75,-0.25 7.75,-0.25 6.25,1 3.5,-0.5 4,-0.25 h 4 c 0,0 1.25,-0.25 2.25,-0.5 1,-0.25 5.25,-2.75 5.25,-2.75 0,0 0.5,0 0.75,-1 0.25,-1 1,-1.75 1,-1.75 l 2,-3.25 c 0,0 3,-4.5 4.5,-4.5 1.5,0 5,-4 5,-4 v -1 l 8,0.75 2,-3.75 5.25,2.75 10,-1 1.25,-3.75 1.25,-3.75 4.25,-3.25 2.75,-2.75 6.75,0.75 2.75,-6.75 v -4.75 l -1.75,-3.75 3,-1.5 1.5,-5.5 v -5.5 l 2,-0.25 -1.25,-5.5 c 0,0 3.75,-3.5 5,-3.5 1.25,0 4,-0.5 4,-0.5 v -5 l 4.25,-1.5 -5,-4.75 1.5,-4.25 3.5,-1.5 v -5 l -7,1.25 -0.75,-4.5 2.75,-2 -0.25,-7 1.25,-7 4,-7.083 3.5,-6.417 3.5,-1.25 4.5,-1.25 4.5,1 v -7.5 l 2,-6.25 4.5,-4.25 3.5,-0.25 6.25,-5.75 4,-8.5 3.5,-9 1.5,-7.5 c 0,0 5,-10.5 6,-11.5 1,-1 4,-12 4,-12 V 329.5 l -1.25,-2.75 c 0,0 3,-2 2.75,-3 -0.25,-1 2,-18.75 2,-18.75 l 1.25,-12.5 1.75,-7.75 v -7.25 l -2.5,-2.75 3.75,-3.5 V 262 c 0,0 -3,-1.5 -3,-2.5 0,-1 1.5,-4.25 1.5,-4.25 l 1.5,-3.25 -3.75,-4 -0.5,-3.25 0.5,-5.5 -2,-11.25 -2.5,-5 0.25,-3.5 -4.75,-13 -3.75,-10 -0.25,-6 H 787 l -2,-5.5 -4.5,-6.25 -3.5,-5 -2,-2.75 -0.5,-4.5 -4.75,-4.5 -2.75,-5.5 -3,-4.75 h -2.25 l -5,-2.25 c 0,0 4.5,-2.25 3.25,-2.25 -1.25,0 -4,-1.75 -4,-1.75 l 1.75,-2.25 -8.25,-5.75 -6,-5 -1.25,-5 -4,-7.5 -5.25,-7.75 -0.25,-3.25 -7,-4 -11,-8.75 -4,-5.75 L 699.5,84.75 683,76.5 672.25,69.75 673,67.5 l -6.25,-2 -7,-3.5 5,-1.5 -6,-1.75 -2.25,-2.5 -11,-2.5 -2.5,-2.25 -2,-1.75 -0.75,-2.75 -7.75,-2 -0.75,-1.75 -5,-1.25 -3,-3.5 h -4.25 l -10.25,-6.75 -8,-1.75 -0.5,-1.5 h -12 l 1,-2.5 -5.75,-1.25 -5.5,-1.25 -4.25,-3 -7.5,-2 H 561.5 L 561,16 H 546.25 L 546,14.75 h -2.5 l -1,-1.25 -4.5,1.5 -0.25,-3 H 529 l -1.75,-1.75 H 523 515 L 513.75,8.75 508,10 l 1.75,-3.25 -8,2.5 -2.75,0.25 -1,-2.75 -5.25,3 -8.5,0.75 -6.25,1.25 -0.5,-1.75 -4.75,1.25 -7.25,1 0.25,-2.75 -4.5,3 -3.25,1.75 -9.25,4 -3.25,-1.25 -10.25,5 -6.25,2 -1.5,-2.25 -2.25,-0.75 -4,3.75 -5,5.75 -2.25,-0.5 -0.75,-2 -6.5,7.5 -2.833,-0.25 V 33 l -3.917,5.75 -4.5,5 -2.5,-0.25 -8.25,4 -7,3.75 h -6.25 l -3.75,5 -6,4 -4.25,-0.25 -9,4.5 -4,2 -0.75,-1.75 -7.25,6.5 -6.5,5.75 -2,-1.75 -3.5,5.5 -3.5,1.5 -4.5,3 c 0,0 -2.25,1.75 -3,2 -0.75,0.25 -4.25,1.5 -4.25,1.5 L 307.25,88 306,91 304.75,89.25 302,94 l -2.25,2.75 c 0,0 -1.75,-4.5 -1.75,-3.5 0,1 -3.5,7.25 -3.5,7.25 l -3.5,-1.75 -1.25,3.25 -2.75,-1.25 -3,7.25 -2.75,2 -6,3.25 -7.25,3.5 -13.25,6.75 -1.25,3 -4,-1.5 -1.75,3.5 -6.25,0.75 -1.25,1.5 -4.5,-0.75 c 0,0 1.75,1.25 0.25,2 -1.5,0.75 -4,2 -4,2 l -0.25,2 -4,0.5 -0.75,4.75 -9,0.75 1.75,2.75 -4,-0.25 -6.25,5.75 -10.75,1.75 -8.75,3.25 -13.5,2.5 -8.25,3 -20.25,0.25 -11,-1.75 -6.75,-5.5 -10.75,-2.5 -4.25,0.5 -5.25,-7.25 -5.25,-4.5 -3,-3.5 -3.25,-5 -2.75,-6.25 -2.5,-2.25 -5.75,-0.25 -1,6 -2.75,7 -1,2 -2,-4.25 -0.75,9.75 -1.5,9.75 -1.75,-3 -0.25,5.5 -2.5,-4.5 -1.25,8.5 c 0,0 -2.75,-5.25 -2.5,-4.5 0.25,0.75 1.5,11 1.5,11 l -0.5,9.75 -0.25,7 c 0,0 -3,-3.5 -1.5,-1.75 1.5,1.75 -0.25,4.5 -0.25,4.5 l -1,2.75 -1,2.75 -1.25,-0.5 0.121,1.688 0.129,1.812 -1.5,3.25 1.25,4.25 1,3.5 1.75,0.5 -2.417,3.5 z"
   id="path3" />
</svg>